<svg width="618" height="319" viewBox="0 0 618 319" fill="none" xmlns="http://www.w3.org/2000/svg">
<g clip-path="url(#clip0_95_726)">
<path d="M0 20C0 8.9543 8.95431 0 20 0H598C609.046 0 618 8.95431 618 20V322H0V20Z" fill="url(#paint0_linear_95_726)"/>
<rect x="40" y="39" width="40" height="40" rx="6.66667" fill="url(#paint1_linear_95_726)"/>
<rect x="40" y="39" width="40" height="40" rx="6.66667" fill="white"/>
<path fill-rule="evenodd" clip-rule="evenodd" d="M51.8281 57.5625H66.8125C67 57.5625 67.1718 57.6406 67.3125 57.7812L69.6875 60.2188C70.125 60.6719 69.8125 61.4375 69.1875 61.4375H54.2031C54.0156 61.4375 53.8437 61.3594 53.7031 61.2188L51.3281 58.7813C50.8906 58.3281 51.2031 57.5625 51.8281 57.5625ZM51.3281 54.3281L53.7031 51.8906C53.8281 51.75 54.0156 51.6719 54.2031 51.6719H69.1718C69.7968 51.6719 70.1093 52.4375 69.6718 52.8906L67.3125 55.3281C67.1875 55.4687 67 55.5469 66.8125 55.5469H51.8281C51.2031 55.5469 50.8906 54.7812 51.3281 54.3281ZM69.6718 64.6563L67.2968 67.0938C67.1562 67.2344 66.9843 67.3125 66.7968 67.3125H51.8281C51.2031 67.3125 50.8906 66.5469 51.3281 66.0938L53.7031 63.6562C53.8281 63.5156 54.0156 63.4375 54.2031 63.4375H69.1718C69.7968 63.4375 70.1093 64.2031 69.6718 64.6563Z" fill="#141414"/>
<path d="M111.86 58.36C110.647 58.36 109.613 58.16 108.76 57.76C107.907 57.36 107.253 56.8067 106.8 56.1C106.347 55.3933 106.12 54.5933 106.12 53.7H108.08C108.08 54.14 108.193 54.58 108.42 55.02C108.66 55.46 109.053 55.8267 109.6 56.12C110.16 56.4133 110.913 56.56 111.86 56.56C112.74 56.56 113.46 56.4333 114.02 56.18C114.58 55.9133 114.993 55.5733 115.26 55.16C115.527 54.7333 115.66 54.2733 115.66 53.78C115.66 53.18 115.4 52.6867 114.88 52.3C114.36 51.9 113.6 51.6533 112.6 51.56L110.98 51.42C109.687 51.3133 108.653 50.9133 107.88 50.22C107.107 49.5267 106.72 48.6133 106.72 47.48C106.72 46.5867 106.933 45.8067 107.36 45.14C107.8 44.4733 108.407 43.9533 109.18 43.58C109.953 43.1933 110.853 43 111.88 43C112.893 43 113.787 43.1867 114.56 43.56C115.333 43.9333 115.933 44.46 116.36 45.14C116.8 45.8067 117.02 46.6067 117.02 47.54H115.06C115.06 47.0733 114.947 46.6333 114.72 46.22C114.507 45.8067 114.167 45.4667 113.7 45.2C113.233 44.9333 112.627 44.8 111.88 44.8C111.16 44.8 110.56 44.9267 110.08 45.18C109.613 45.4333 109.26 45.7667 109.02 46.18C108.793 46.58 108.68 47.0133 108.68 47.48C108.68 48.0133 108.887 48.4867 109.3 48.9C109.713 49.3133 110.327 49.5533 111.14 49.62L112.76 49.76C113.76 49.84 114.62 50.0533 115.34 50.4C116.073 50.7333 116.633 51.1867 117.02 51.76C117.42 52.32 117.62 52.9933 117.62 53.78C117.62 54.6733 117.38 55.4667 116.9 56.16C116.42 56.8533 115.747 57.3933 114.88 57.78C114.013 58.1667 113.007 58.36 111.86 58.36ZM125.549 58.36C124.616 58.36 123.796 58.2 123.089 57.88C122.382 57.56 121.782 57.14 121.289 56.62C120.809 56.0867 120.442 55.4933 120.189 54.84C119.949 54.1867 119.829 53.52 119.829 52.84V52.48C119.829 51.8 119.956 51.1333 120.209 50.48C120.462 49.8133 120.836 49.22 121.329 48.7C121.822 48.1667 122.422 47.7467 123.129 47.44C123.836 47.12 124.642 46.96 125.549 46.96C126.456 46.96 127.262 47.12 127.969 47.44C128.676 47.7467 129.276 48.1667 129.769 48.7C130.262 49.22 130.636 49.8133 130.889 50.48C131.142 51.1333 131.269 51.8 131.269 52.48V52.84C131.269 53.52 131.142 54.1867 130.889 54.84C130.649 55.4933 130.282 56.0867 129.789 56.62C129.309 57.14 128.716 57.56 128.009 57.88C127.302 58.2 126.482 58.36 125.549 58.36ZM125.549 56.64C126.349 56.64 127.029 56.4667 127.589 56.12C128.162 55.76 128.596 55.28 128.889 54.68C129.196 54.08 129.349 53.4067 129.349 52.66C129.349 51.9 129.196 51.22 128.889 50.62C128.582 50.02 128.142 49.5467 127.569 49.2C127.009 48.8533 126.336 48.68 125.549 48.68C124.776 48.68 124.102 48.8533 123.529 49.2C122.956 49.5467 122.516 50.02 122.209 50.62C121.902 51.22 121.749 51.9 121.749 52.66C121.749 53.4067 121.896 54.08 122.189 54.68C122.496 55.28 122.929 55.76 123.489 56.12C124.062 56.4667 124.749 56.64 125.549 56.64ZM134.265 58V43.4H136.185V58H134.265ZM132.785 44.92V43.4H136.185V44.92H132.785ZM146.327 58V54.8H146.007V51.1C146.007 50.3667 145.814 49.8133 145.427 49.44C145.054 49.0667 144.501 48.88 143.767 48.88C143.354 48.88 142.927 48.8867 142.487 48.9C142.047 48.9133 141.627 48.9267 141.227 48.94C140.827 48.9533 140.481 48.9733 140.187 49V47.32C140.481 47.2933 140.787 47.2733 141.107 47.26C141.441 47.2333 141.781 47.22 142.127 47.22C142.474 47.2067 142.807 47.2 143.127 47.2C144.221 47.2 145.114 47.3333 145.807 47.6C146.501 47.8533 147.014 48.2733 147.347 48.86C147.681 49.4467 147.847 50.24 147.847 51.24V58H146.327ZM142.827 58.28C142.027 58.28 141.334 58.1467 140.747 57.88C140.174 57.6 139.727 57.2 139.407 56.68C139.101 56.16 138.947 55.5333 138.947 54.8C138.947 54.04 139.114 53.4067 139.447 52.9C139.794 52.3933 140.294 52.0133 140.947 51.76C141.601 51.4933 142.387 51.36 143.307 51.36H146.207V52.8H143.227C142.454 52.8 141.861 52.9867 141.447 53.36C141.034 53.7333 140.827 54.2133 140.827 54.8C140.827 55.3867 141.034 55.86 141.447 56.22C141.861 56.58 142.454 56.76 143.227 56.76C143.681 56.76 144.114 56.68 144.527 56.52C144.941 56.3467 145.281 56.0667 145.547 55.68C145.827 55.28 145.981 54.7333 146.007 54.04L146.527 54.8C146.461 55.56 146.274 56.2 145.967 56.72C145.674 57.2267 145.261 57.6133 144.727 57.88C144.207 58.1467 143.574 58.28 142.827 58.28ZM151.371 58V47.32H152.891V51.9H152.651C152.651 50.8467 152.791 49.96 153.071 49.24C153.365 48.5067 153.805 47.9533 154.391 47.58C154.978 47.1933 155.718 47 156.611 47H156.691C158.038 47 159.031 47.42 159.671 48.26C160.325 49.1 160.651 50.3133 160.651 51.9V58H158.731V51.5C158.731 50.6733 158.498 50.0133 158.031 49.52C157.565 49.0133 156.925 48.76 156.111 48.76C155.271 48.76 154.591 49.02 154.071 49.54C153.551 50.06 153.291 50.7533 153.291 51.62V58H151.371ZM170.624 58V54.8H170.304V51.1C170.304 50.3667 170.111 49.8133 169.724 49.44C169.351 49.0667 168.798 48.88 168.064 48.88C167.651 48.88 167.224 48.8867 166.784 48.9C166.344 48.9133 165.924 48.9267 165.524 48.94C165.124 48.9533 164.778 48.9733 164.484 49V47.32C164.778 47.2933 165.084 47.2733 165.404 47.26C165.738 47.2333 166.078 47.22 166.424 47.22C166.771 47.2067 167.104 47.2 167.424 47.2C168.518 47.2 169.411 47.3333 170.104 47.6C170.798 47.8533 171.311 48.2733 171.644 48.86C171.978 49.4467 172.144 50.24 172.144 51.24V58H170.624ZM167.124 58.28C166.324 58.28 165.631 58.1467 165.044 57.88C164.471 57.6 164.024 57.2 163.704 56.68C163.398 56.16 163.244 55.5333 163.244 54.8C163.244 54.04 163.411 53.4067 163.744 52.9C164.091 52.3933 164.591 52.0133 165.244 51.76C165.898 51.4933 166.684 51.36 167.604 51.36H170.504V52.8H167.524C166.751 52.8 166.158 52.9867 165.744 53.36C165.331 53.7333 165.124 54.2133 165.124 54.8C165.124 55.3867 165.331 55.86 165.744 56.22C166.158 56.58 166.751 56.76 167.524 56.76C167.978 56.76 168.411 56.68 168.824 56.52C169.238 56.3467 169.578 56.0667 169.844 55.68C170.124 55.28 170.278 54.7333 170.304 54.04L170.824 54.8C170.758 55.56 170.571 56.2 170.264 56.72C169.971 57.2267 169.558 57.6133 169.024 57.88C168.504 58.1467 167.871 58.28 167.124 58.28Z" fill="white"/>
<path d="M106.056 80.208V78.896H112.008V80.208H106.056ZM119.015 84.288C118.14 84.288 117.393 84.1387 116.775 83.84C116.167 83.5307 115.671 83.1147 115.287 82.592C114.913 82.0693 114.641 81.4667 114.471 80.784C114.3 80.0907 114.215 79.36 114.215 78.592V77.728C114.215 76.6507 114.38 75.68 114.711 74.816C115.052 73.952 115.575 73.2693 116.279 72.768C116.993 72.256 117.905 72 119.015 72C120.124 72 121.031 72.256 121.735 72.768C122.439 73.2693 122.956 73.952 123.287 74.816C123.628 75.68 123.799 76.6507 123.799 77.728V78.592C123.799 79.36 123.713 80.0907 123.543 80.784C123.372 81.4667 123.095 82.0693 122.711 82.592C122.337 83.1147 121.847 83.5307 121.239 83.84C120.631 84.1387 119.889 84.288 119.015 84.288ZM119.015 82.88C120.124 82.88 120.935 82.5067 121.447 81.76C121.969 81.0027 122.231 79.808 122.231 78.176C122.231 76.4693 121.964 75.248 121.431 74.512C120.908 73.776 120.103 73.408 119.015 73.408C117.916 73.408 117.1 73.776 116.567 74.512C116.044 75.248 115.783 76.4587 115.783 78.144C115.783 79.7867 116.044 80.9867 116.567 81.744C117.089 82.5013 117.905 82.88 119.015 82.88ZM126.121 84V82.048H127.977V84H126.121ZM134.197 84.288C133.301 84.288 132.543 84.1067 131.925 83.744C131.306 83.3707 130.837 82.8853 130.517 82.288C130.197 81.6907 130.037 81.056 130.037 80.384H131.541C131.541 80.8747 131.647 81.312 131.861 81.696C132.085 82.08 132.394 82.384 132.789 82.608C133.183 82.832 133.653 82.944 134.197 82.944C134.73 82.944 135.194 82.8373 135.589 82.624C135.994 82.4 136.309 82.096 136.533 81.712C136.757 81.3173 136.869 80.8747 136.869 80.384C136.869 79.8933 136.757 79.4507 136.533 79.056C136.319 78.6613 136.01 78.3467 135.605 78.112C135.21 77.8773 134.741 77.76 134.197 77.76C133.802 77.76 133.402 77.8293 132.997 77.968C132.591 78.096 132.266 78.2827 132.021 78.528H130.613L131.205 72.32H137.333V73.632H132.101L132.485 73.104L132.037 77.632L131.621 77.488C131.93 77.1787 132.303 76.9333 132.741 76.752C133.189 76.5707 133.695 76.48 134.261 76.48C135.157 76.48 135.909 76.6667 136.517 77.04C137.125 77.4027 137.583 77.8773 137.893 78.464C138.213 79.04 138.373 79.6427 138.373 80.272V80.496C138.373 81.1253 138.213 81.7333 137.893 82.32C137.573 82.896 137.098 83.3707 136.469 83.744C135.85 84.1067 135.093 84.288 134.197 84.288ZM144.693 84.32C143.84 84.32 143.125 84.1707 142.549 83.872C141.984 83.5733 141.531 83.168 141.189 82.656C140.859 82.1333 140.619 81.536 140.469 80.864C140.331 80.192 140.261 79.488 140.261 78.752V77.984C140.261 76.1387 140.72 74.72 141.637 73.728C142.555 72.7253 143.883 72.224 145.621 72.224C146.037 72.224 146.389 72.2347 146.677 72.256C146.965 72.2773 147.28 72.3093 147.621 72.352V73.664C147.269 73.6213 146.944 73.5893 146.645 73.568C146.347 73.5467 145.984 73.536 145.557 73.536C144.587 73.536 143.819 73.7173 143.253 74.08C142.688 74.4427 142.283 74.9653 142.037 75.648C141.792 76.32 141.669 77.136 141.669 78.096V78.816L141.285 80.24C141.296 79.3973 141.456 78.6987 141.765 78.144C142.085 77.5893 142.517 77.1733 143.061 76.896C143.616 76.6187 144.251 76.48 144.965 76.48C145.797 76.48 146.501 76.6507 147.077 76.992C147.653 77.3227 148.085 77.7813 148.373 78.368C148.672 78.9547 148.821 79.6213 148.821 80.368C148.821 81.1253 148.667 81.8027 148.357 82.4C148.048 82.9973 147.584 83.4667 146.965 83.808C146.357 84.1493 145.6 84.32 144.693 84.32ZM144.693 82.976C145.28 82.976 145.771 82.864 146.165 82.64C146.56 82.416 146.853 82.112 147.045 81.728C147.248 81.3333 147.349 80.88 147.349 80.368C147.349 79.856 147.253 79.4027 147.061 79.008C146.869 78.6133 146.581 78.3093 146.197 78.096C145.824 77.872 145.36 77.76 144.805 77.76C144.261 77.76 143.771 77.8613 143.333 78.064C142.907 78.2667 142.571 78.5653 142.325 78.96C142.08 79.344 141.957 79.8187 141.957 80.384C141.957 80.8533 142.053 81.2853 142.245 81.68C142.437 82.0747 142.736 82.3893 143.141 82.624C143.547 82.8587 144.064 82.976 144.693 82.976ZM153.672 84L158.088 72.32H159.304L154.888 84H153.672ZM152.808 78.592C152.2 78.592 151.704 78.4533 151.32 78.176C150.947 77.8987 150.67 77.5307 150.488 77.072C150.318 76.6133 150.232 76.1173 150.232 75.584V75.168C150.232 74.592 150.323 74.08 150.504 73.632C150.686 73.1733 150.968 72.816 151.352 72.56C151.736 72.2933 152.222 72.16 152.808 72.16C153.406 72.16 153.891 72.2933 154.264 72.56C154.648 72.816 154.931 73.1733 155.112 73.632C155.294 74.08 155.384 74.592 155.384 75.168V75.584C155.384 76.1173 155.294 76.6133 155.112 77.072C154.942 77.5307 154.67 77.8987 154.296 78.176C153.923 78.4533 153.427 78.592 152.808 78.592ZM152.808 77.536C153.299 77.536 153.662 77.36 153.896 77.008C154.142 76.6453 154.264 76.1067 154.264 75.392C154.264 74.6347 154.142 74.0853 153.896 73.744C153.651 73.392 153.288 73.216 152.808 73.216C152.328 73.216 151.966 73.392 151.72 73.744C151.475 74.0853 151.352 74.6293 151.352 75.376C151.352 76.0907 151.47 76.6293 151.704 76.992C151.95 77.3547 152.318 77.536 152.808 77.536ZM160.104 84.16C159.496 84.16 159 84.0213 158.616 83.744C158.243 83.4667 157.966 83.0987 157.784 82.64C157.614 82.1813 157.528 81.6853 157.528 81.152V80.736C157.528 80.16 157.619 79.648 157.8 79.2C157.982 78.7413 158.264 78.384 158.648 78.128C159.032 77.8613 159.518 77.728 160.104 77.728C160.702 77.728 161.187 77.8613 161.56 78.128C161.944 78.384 162.227 78.7413 162.408 79.2C162.59 79.648 162.68 80.16 162.68 80.736V81.152C162.68 81.6853 162.59 82.1813 162.408 82.64C162.238 83.0987 161.966 83.4667 161.592 83.744C161.219 84.0213 160.723 84.16 160.104 84.16ZM160.104 83.104C160.595 83.104 160.958 82.928 161.192 82.576C161.438 82.2133 161.56 81.6747 161.56 80.96C161.56 80.2027 161.438 79.6533 161.192 79.312C160.947 78.96 160.584 78.784 160.104 78.784C159.624 78.784 159.262 78.96 159.016 79.312C158.771 79.6533 158.648 80.1973 158.648 80.944C158.648 81.6587 158.766 82.1973 159 82.56C159.246 82.9227 159.614 83.104 160.104 83.104Z" fill="#D5D5D5"/>
<path d="M75 127.583L2 121V349.359L618 358V206.752L565 142.944L533 219.75L470 197.531L393 176.929L334 162.61L299 254.017L244 121L164 197.531L75 127.583Z" fill="url(#paint2_linear_95_726)" fill-opacity="0.2" stroke="#5BEB70" stroke-width="2"/>
</g>
<path d="M20 0.5H598C608.77 0.5 617.5 9.23045 617.5 20V321.5H0.5V20C0.5 9.23045 9.23045 0.5 20 0.5Z" stroke="#454545"/>
<defs>
<linearGradient id="paint0_linear_95_726" x1="-9.06583e-07" y1="87.1419" x2="620.794" y2="205.298" gradientUnits="userSpaceOnUse">
<stop/>
<stop offset="0.322115" stop-color="#1A1A1A"/>
<stop offset="0.644231" stop-color="#1A1A1A"/>
<stop offset="1" stop-color="#020202"/>
</linearGradient>
<linearGradient id="paint1_linear_95_726" x1="60" y1="39" x2="60" y2="79" gradientUnits="userSpaceOnUse">
<stop stop-color="#5BEB70"/>
<stop offset="1" stop-color="#009916"/>
</linearGradient>
<linearGradient id="paint2_linear_95_726" x1="310" y1="81.5" x2="310" y2="358" gradientUnits="userSpaceOnUse">
<stop stop-color="#5BEB70"/>
<stop offset="1" stop-color="#00490B"/>
</linearGradient>
<clipPath id="clip0_95_726">
<path d="M0 20C0 8.9543 8.95431 0 20 0H598C609.046 0 618 8.95431 618 20V322H0V20Z" fill="white"/>
</clipPath>
</defs>
</svg>
