<svg width="79" height="66" viewBox="0 0 79 66" fill="none" xmlns="http://www.w3.org/2000/svg">
<mask id="mask0_95_1052" style="mask-type:luminance" maskUnits="userSpaceOnUse" x="0" y="0" width="79" height="66">
<path d="M79 0H0V65.466H79V0Z" fill="white"/>
</mask>
<g mask="url(#mask0_95_1052)">
<path d="M74.1137 39.8334C74.1137 41.3412 73.8332 42.7833 73.3197 44.113C71.5631 48.6546 67.1002 51.8806 61.8698 51.8806C56.517 51.8806 51.9685 48.5011 50.3033 43.7917C40.4147 44.4913 34.7604 40.1421 32.4094 31.8526C26.4703 30.2632 22.105 24.9198 22.105 18.5716C22.105 14.466 23.9319 10.7793 26.8297 8.25923C29.2955 6.1112 32.5382 4.80811 36.0908 4.80811C40.1608 4.80811 43.8258 6.5181 46.3785 9.25147C48.0954 8.14661 50.1472 7.50619 52.3511 7.50619C53.8891 7.50619 55.3549 7.81935 56.6833 8.38398C60.5268 10.0165 63.2294 13.7559 63.2896 18.1237C63.2916 18.1749 63.2916 18.224 63.2916 18.2752L63.2896 18.4573V18.4593C63.8486 18.3386 64.4285 18.2752 65.0253 18.2752C67.6902 18.2752 70.058 19.5314 71.5503 21.4747H71.5528C72.5879 22.823 73.201 24.5023 73.201 26.3232C73.2048 28.2115 72.5288 30.04 71.2928 31.4844C71.1999 31.5958 71.1034 31.7043 71.0035 31.8097C72.9392 33.9392 74.1137 36.7522 74.1137 39.8334Z" fill="#1F1F1F"/>
<path d="M52.2111 17.599C49.9959 19.968 48.6431 23.1305 48.6431 26.604C48.6431 33.9503 54.6949 39.9058 62.1598 39.9058C63.123 39.9064 64.0835 39.8059 65.0251 39.6063M35.4956 13.3052C35.8338 18.1094 39.9012 21.9034 44.8688 21.9034M59.8112 20.1195C60.8159 19.298 62.0078 18.7281 63.285 18.4586M46.3737 9.25049C44.8003 10.2589 43.5071 11.6563 42.6365 13.3052" stroke="white" stroke-width="0.318505" stroke-miterlimit="10" stroke-linecap="round" stroke-linejoin="round"/>
<path d="M74.1117 39.8312C74.1117 46.4858 68.6301 51.8786 61.8679 51.8786C56.515 51.8786 51.9667 48.4992 50.3013 43.7898C40.413 44.4893 34.7586 40.1401 32.4074 31.8508C26.4683 30.2613 22.103 24.918 22.103 18.5696C22.103 10.9679 28.3642 4.80615 36.0888 4.80615C40.1589 4.80615 43.8239 6.51613 46.3765 9.2495C48.0936 8.14465 50.1454 7.50423 52.3491 7.50423C58.3921 7.50423 63.2897 12.3263 63.2897 18.2732L63.2876 18.4554C63.8466 18.3347 64.4265 18.2732 65.0234 18.2732C69.5384 18.2732 73.1993 21.8757 73.1993 26.3211C73.1993 28.4426 72.3656 30.3697 71.0018 31.8077C72.9373 33.9374 74.1117 36.75 74.1117 39.8312Z" stroke="white" stroke-width="0.278673" stroke-miterlimit="10" stroke-linejoin="round"/>
<path d="M71.0007 31.8077C71.0007 31.8077 70.0516 30.8383 68.7534 29.8296M34.4911 53.6564C33.9552 52.5547 33.6125 51.3718 33.4771 50.1577" stroke="white" stroke-width="0.318505" stroke-miterlimit="10" stroke-linecap="round" stroke-linejoin="round"/>
<path d="M58.5042 45.2781C58.9368 46.4598 59.1576 47.7065 59.1567 48.9626C59.1567 55.4232 53.3944 60.658 46.2848 60.658C41.0132 60.658 36.4833 57.7796 34.4961 53.6577C32.8581 54.752 30.8935 55.3903 28.7836 55.3903C24.0525 55.3903 20.0611 52.1868 18.8097 47.8047C17.9164 48.0239 16.999 48.1345 16.0783 48.1341C9.89803 48.1341 4.88605 43.2037 4.88605 37.1196C4.88605 32.4471 7.84409 28.4541 12.0182 26.8562C11.8541 26.1874 11.7668 25.4938 11.7668 24.7819C11.7668 19.2646 16.9763 14.7925 23.4037 14.7925C27.0936 14.7925 30.3862 16.2692 32.5169 18.5687C34.2258 17.6665 36.1965 17.1492 38.2962 17.1492C44.809 17.1492 50.0888 22.1183 50.0888 28.2473C50.0895 28.3918 50.086 28.5365 50.0783 28.6807C55.4521 29.6505 59.5368 34.5072 59.5368 40.354C59.5368 42.1112 59.1693 43.7786 58.5042 45.2781Z" fill="#1F1F1F"/>
<path d="M54.3262 39.8325C56.2446 41.2276 57.7125 43.1141 58.5025 45.2782M18.8082 47.8047C18.542 46.8759 18.4006 45.896 18.4006 44.8813C18.4006 40.7406 20.7683 37.1587 24.2067 35.4465M14.9313 26.1648C13.9128 26.2671 12.9357 26.5025 12.0168 26.8563M32.5179 18.5709L32.5155 18.5688C31.0543 19.3463 29.7864 20.4062 28.7947 21.6704" stroke="white" stroke-width="0.318505" stroke-miterlimit="10" stroke-linecap="round" stroke-linejoin="round"/>
<path d="M58.5059 45.2782C58.9387 46.4598 59.1595 47.7065 59.1584 48.9626C59.1584 55.4232 53.3963 60.658 46.2866 60.658C41.0151 60.658 36.4852 57.7796 34.498 53.6577C32.86 54.752 30.8954 55.3903 28.7853 55.3903C24.0543 55.3903 20.063 52.1868 18.8116 47.8047C17.9182 48.0239 17.0009 48.1345 16.0801 48.1341C9.89988 48.1341 4.88788 43.2037 4.88788 37.1196C4.88788 32.4471 7.84594 28.4541 12.0201 26.8562C11.8559 26.1874 11.7686 25.4938 11.7686 24.7819C11.7686 19.2646 16.9781 14.7925 23.4056 14.7925C27.0955 14.7925 30.3881 16.2692 32.5188 18.5687C34.2277 17.6665 36.1983 17.1492 38.2981 17.1492C44.8108 17.1492 50.0907 22.1183 50.0907 28.2473C50.0912 28.3918 50.0879 28.5365 50.0801 28.6807C55.454 29.6505 59.5387 34.5072 59.5387 40.354C59.5387 42.1112 59.171 43.7787 58.5059 45.2782Z" stroke="white" stroke-width="0.278673" stroke-miterlimit="10" stroke-linejoin="round"/>
<path d="M40.0192 31.9786C42.0895 29.8348 44.9478 28.5068 48.1033 28.5068C48.7769 28.5068 49.436 28.5663 50.0781 28.6825M49.3378 42.6178C47.7064 44.6252 45.1969 45.911 42.3818 45.911C37.4658 45.911 33.4806 41.9889 33.4806 37.1512C33.4774 35.1311 34.1867 33.1726 35.4874 31.6099" stroke="white" stroke-width="0.318505" stroke-miterlimit="10" stroke-linecap="round" stroke-linejoin="round"/>
<path d="M46.3201 50.2478C46.3201 48.5273 45.8792 46.9094 45.1016 45.4957M27.7169 44.6529C29.1845 42.513 31.4694 40.9642 34.1323 40.4386M11.8478 37.1283C12.9753 36.6886 14.1772 36.4631 15.39 36.4635C17.3346 36.4608 19.2338 37.0419 20.8342 38.1289M30.1483 29.0662C29.5426 29.2417 28.9016 29.3358 28.238 29.3358C26.4768 29.338 24.7849 28.6615 23.5245 27.4512M59.3623 28.639C60.2941 27.9548 61.4259 27.5861 62.5885 27.5877C62.9114 27.5876 63.234 27.6158 63.5519 27.672" stroke="white" stroke-width="0.318505" stroke-miterlimit="10" stroke-linecap="round" stroke-linejoin="round"/>
<path d="M71.9664 31.8135C73.2387 30.26 73.9326 28.3336 73.9326 26.3224C73.9326 21.49 69.9383 17.5583 65.0291 17.5583C64.686 17.5583 64.3436 17.5779 64.0041 17.6166C63.6567 11.5886 58.5642 6.78956 52.3546 6.78956C50.2841 6.78956 48.2728 7.32303 46.5009 8.33753C43.7399 5.62235 39.9975 4.09535 36.0944 4.09131C29.5522 4.09131 23.9963 8.31605 22.0892 14.1378C15.8881 14.7087 11.0411 19.2641 11.0411 24.7819C11.0411 25.331 11.0899 25.8811 11.1861 26.4236C6.89767 28.3152 4.16052 32.4497 4.16052 37.1198C4.16052 43.5879 9.50773 48.85 16.0802 48.85C16.8308 48.8502 17.5797 48.7812 18.3172 48.6441C19.8772 53.0702 24.089 56.1062 28.7857 56.1062C30.6913 56.1075 32.5638 55.6145 34.2142 54.6767C36.5379 58.7704 41.1861 61.374 46.2867 61.374C52.4968 61.374 57.7445 57.5538 59.3657 52.3542C60.1813 52.5124 61.0202 52.5957 61.8734 52.5957C69.0259 52.5957 74.845 46.8697 74.845 39.8323C74.845 36.9006 73.8272 34.0771 71.9664 31.8135Z" stroke="white" stroke-width="0.557374" stroke-miterlimit="10" stroke-linejoin="round"/>
<path d="M36.0915 0C32.2484 0 28.5519 1.12619 25.4015 3.25658C22.6811 5.09606 20.5248 7.57718 19.1003 10.4906C12.167 12.1441 7.20984 17.6349 6.89646 24.1278C2.60508 27.0601 0 31.9015 0 37.12C0 45.7525 7.06236 52.7927 15.7993 52.9394C18.5581 57.4003 23.4762 60.1981 28.7827 60.1981C30.1383 60.1981 31.4706 60.0212 32.7628 59.6709C36.1071 63.331 41.0207 65.4658 46.2838 65.4658C49.849 65.4658 53.3024 64.471 56.2708 62.5895C58.6827 61.0606 60.6261 59.0428 61.9712 56.6872C71.3705 56.6339 78.9996 49.0935 78.9996 39.8327C78.9996 36.9714 78.2724 34.1951 76.883 31.7127C77.6769 30.0231 78.0879 28.1839 78.0874 26.3224C78.0874 22.9511 76.7669 19.7632 74.3693 17.3462C72.4784 15.4399 70.085 14.1807 67.4803 13.6934C66.6 10.8809 64.9141 8.3468 62.6103 6.41541C59.7475 4.01732 56.1114 2.69961 52.352 2.69794C50.5997 2.69794 48.841 2.99052 47.1841 3.55116C43.9652 1.25123 40.0857 0 36.0915 0ZM36.0915 2.65941C39.9879 2.65941 43.8091 4.08341 46.736 6.59753C48.4917 5.78065 50.4095 5.35719 52.3516 5.35766C58.8202 5.35766 64.2514 9.98699 65.2948 16.1299C70.8824 16.2709 75.3846 20.7891 75.3846 26.3226C75.3827 28.2616 74.8205 30.1599 73.764 31.7964C75.4042 34.1483 76.2971 36.9622 76.2971 39.8329C76.2971 47.6602 69.8251 54.0283 61.8704 54.0283C61.3559 54.0283 60.8394 54.0006 60.3255 53.9461C58.1054 59.2198 52.5107 62.8065 46.2837 62.8065C41.1483 62.8065 36.4421 60.4362 33.6809 56.5393C32.1346 57.1979 30.4677 57.538 28.7827 57.5388C23.8734 57.5388 19.4332 54.6421 17.3887 50.2196C16.953 50.2615 16.5148 50.2824 16.0773 50.2824C8.70251 50.2824 2.70251 44.3779 2.70251 37.12C2.70251 32.3015 5.38227 27.8872 9.61411 25.5948C9.59357 25.3245 9.58328 25.0534 9.58325 24.7821C9.58325 18.8292 14.4351 13.8278 21.0153 12.8262C23.4194 6.70786 29.3639 2.65941 36.0915 2.65941Z" fill="url(#paint0_linear_95_1052)"/>
</g>
<defs>
<linearGradient id="paint0_linear_95_1052" x1="39.4998" y1="0" x2="39.4998" y2="65.4658" gradientUnits="userSpaceOnUse">
<stop stop-color="#F0F0F0"/>
<stop offset="1" stop-color="#8A8A8A"/>
</linearGradient>
</defs>
</svg>
